<svg xmlns="http://www.w3.org/2000/svg" xmlns:xlink="http://www.w3.org/1999/xlink" width="1094pt" height="508pt" viewBox="0.00 0.00 1094.00 508.00">
<g id="graph0" class="graph" transform="scale(1 1) rotate(0) translate(4 503.6)">
<title>ModeloRelacional</title>
<polygon fill="white" stroke="none" points="-4,4 -4,-503.6 1090.11,-503.6 1090.11,4 -4,4"/>
<!-- Propietario -->
<g id="node1" class="node">
<title>Propietario</title>
<polygon fill="none" stroke="black" points="6.63,-407.1 6.63,-499.1 307.04,-499.1 307.04,-407.1 6.63,-407.1"/>
<text xml:space="preserve" text-anchor="middle" x="62.47" y="-448.9" font-family="Helvetica,sans-Serif" font-size="14.00">PROPIETARIO</text>
<polyline fill="none" stroke="black" points="118.31,-407.1 118.31,-499.1"/>
<text xml:space="preserve" text-anchor="start" x="126.31" y="-482.5" font-family="Helvetica,sans-Serif" font-size="14.00">PK nit : VARCHAR(15)</text>
<text xml:space="preserve" text-anchor="start" x="126.31" y="-465.7" font-family="Helvetica,sans-Serif" font-size="14.00"> cui : VARCHAR(20)</text>
<text xml:space="preserve" text-anchor="start" x="126.31" y="-448.9" font-family="Helvetica,sans-Serif" font-size="14.00"> nombre : VARCHAR(100)</text>
<text xml:space="preserve" text-anchor="start" x="126.31" y="-432.1" font-family="Helvetica,sans-Serif" font-size="14.00"> telefono : VARCHAR(15)</text>
<text xml:space="preserve" text-anchor="start" x="126.31" y="-415.3" font-family="Helvetica,sans-Serif" font-size="14.00"> direccion : VARCHAR(255)</text>
</g>
<!-- Propiedad -->
<g id="node3" class="node">
<title>Propiedad</title>
<polygon fill="none" stroke="black" points="429.41,-387.1 429.41,-479.1 708.03,-479.1 708.03,-387.1 429.41,-387.1"/>
<text xml:space="preserve" text-anchor="middle" x="478.64" y="-428.9" font-family="Helvetica,sans-Serif" font-size="14.00">PROPIEDAD</text>
<polyline fill="none" stroke="black" points="527.87,-387.1 527.87,-479.1"/>
<text xml:space="preserve" text-anchor="start" x="535.87" y="-462.5" font-family="Helvetica,sans-Serif" font-size="14.00">PK id_propiedad : INT</text>
<text xml:space="preserve" text-anchor="start" x="535.87" y="-445.7" font-family="Helvetica,sans-Serif" font-size="14.00"> FK nit : VARCHAR(15)</text>
<text xml:space="preserve" text-anchor="start" x="535.87" y="-428.9" font-family="Helvetica,sans-Serif" font-size="14.00"> FK placa : VARCHAR(10)</text>
<text xml:space="preserve" text-anchor="start" x="535.87" y="-412.1" font-family="Helvetica,sans-Serif" font-size="14.00"> fecha_inicio : DATE</text>
<text xml:space="preserve" text-anchor="start" x="535.87" y="-395.3" font-family="Helvetica,sans-Serif" font-size="14.00"> fecha_fin : DATE</text>
</g>
<!-- Propietario&#45;&gt;Propiedad -->
<g id="edge1" class="edge">
<title>Propietario-&gt;Propiedad</title>
<path fill="none" stroke="black" d="M307.26,-445.81C343.34,-444.05 381.9,-442.17 417.99,-440.41"/>
<polygon fill="black" stroke="black" points="417.78,-443.92 427.6,-439.94 417.44,-436.93 417.78,-443.92"/>
<text xml:space="preserve" text-anchor="middle" x="342.17" y="-448.5" font-family="Times,serif" font-size="14.00">1:N</text>
</g>
<!-- Vehiculo -->
<g id="node2" class="node">
<title>Vehiculo</title>
<polygon fill="none" stroke="black" points="0,-94.3 0,-387.9 313.67,-387.9 313.67,-94.3 0,-94.3"/>
<text xml:space="preserve" text-anchor="middle" x="43.79" y="-236.9" font-family="Helvetica,sans-Serif" font-size="14.00">VEHICULO</text>
<polyline fill="none" stroke="black" points="87.57,-94.3 87.57,-387.9"/>
<text xml:space="preserve" text-anchor="start" x="95.57" y="-371.3" font-family="Helvetica,sans-Serif" font-size="14.00">PK placa : VARCHAR(10)</text>
<text xml:space="preserve" text-anchor="start" x="95.57" y="-354.5" font-family="Helvetica,sans-Serif" font-size="14.00"> uso : VARCHAR(50)</text>
<text xml:space="preserve" text-anchor="start" x="95.57" y="-337.7" font-family="Helvetica,sans-Serif" font-size="14.00"> tipo : VARCHAR(50)</text>
<text xml:space="preserve" text-anchor="start" x="95.57" y="-320.9" font-family="Helvetica,sans-Serif" font-size="14.00"> marca : VARCHAR(50)</text>
<text xml:space="preserve" text-anchor="start" x="95.57" y="-304.1" font-family="Helvetica,sans-Serif" font-size="14.00"> linea : VARCHAR(50)</text>
<text xml:space="preserve" text-anchor="start" x="95.57" y="-287.3" font-family="Helvetica,sans-Serif" font-size="14.00"> modelo : INT</text>
<text xml:space="preserve" text-anchor="start" x="95.57" y="-270.5" font-family="Helvetica,sans-Serif" font-size="14.00"> chasis : VARCHAR(50)</text>
<text xml:space="preserve" text-anchor="start" x="95.57" y="-253.7" font-family="Helvetica,sans-Serif" font-size="14.00"> vin : VARCHAR(50)</text>
<text xml:space="preserve" text-anchor="start" x="95.57" y="-236.9" font-family="Helvetica,sans-Serif" font-size="14.00"> serie : VARCHAR(50)</text>
<text xml:space="preserve" text-anchor="start" x="95.57" y="-220.1" font-family="Helvetica,sans-Serif" font-size="14.00"> motor : VARCHAR(50)</text>
<text xml:space="preserve" text-anchor="start" x="95.57" y="-203.3" font-family="Helvetica,sans-Serif" font-size="14.00"> asientos : INT</text>
<text xml:space="preserve" text-anchor="start" x="95.57" y="-186.5" font-family="Helvetica,sans-Serif" font-size="14.00"> ejes : INT</text>
<text xml:space="preserve" text-anchor="start" x="95.57" y="-169.7" font-family="Helvetica,sans-Serif" font-size="14.00"> cilindros : INT</text>
<text xml:space="preserve" text-anchor="start" x="95.57" y="-152.9" font-family="Helvetica,sans-Serif" font-size="14.00"> cc : INT</text>
<text xml:space="preserve" text-anchor="start" x="95.57" y="-136.1" font-family="Helvetica,sans-Serif" font-size="14.00"> tonelaje : DECIMAL</text>
<text xml:space="preserve" text-anchor="start" x="95.57" y="-119.3" font-family="Helvetica,sans-Serif" font-size="14.00"> color : VARCHAR(30)</text>
<text xml:space="preserve" text-anchor="start" x="95.57" y="-102.5" font-family="Helvetica,sans-Serif" font-size="14.00"> estado_vehiculo : VARCHAR(30)</text>
</g>
<!-- Vehiculo&#45;&gt;Propiedad -->
<g id="edge2" class="edge">
<title>Vehiculo-&gt;Propiedad</title>
<path fill="none" stroke="black" d="M313.96,-314.23C362.13,-336.8 414.12,-361.15 458.43,-381.9"/>
<polygon fill="black" stroke="black" points="456.72,-384.97 467.26,-386.04 459.69,-378.63 456.72,-384.97"/>
<text xml:space="preserve" text-anchor="middle" x="342.17" y="-335.54" font-family="Times,serif" font-size="14.00">1:N</text>
</g>
<!-- Tarjeta_Circulacion -->
<g id="node4" class="node">
<title>Tarjeta_Circulacion</title>
<polygon fill="none" stroke="black" points="370.67,-231.1 370.67,-323.1 766.78,-323.1 766.78,-231.1 370.67,-231.1"/>
<text xml:space="preserve" text-anchor="middle" x="461.9" y="-272.9" font-family="Helvetica,sans-Serif" font-size="14.00">TARJETA_CIRCULACION</text>
<polyline fill="none" stroke="black" points="553.14,-231.1 553.14,-323.1"/>
<text xml:space="preserve" text-anchor="start" x="561.14" y="-306.5" font-family="Helvetica,sans-Serif" font-size="14.00">PK no_tarjeta : INT</text>
<text xml:space="preserve" text-anchor="start" x="561.14" y="-289.7" font-family="Helvetica,sans-Serif" font-size="14.00"> FK placa : VARCHAR(10)</text>
<text xml:space="preserve" text-anchor="start" x="561.14" y="-272.9" font-family="Helvetica,sans-Serif" font-size="14.00"> fecha_emision : DATE</text>
<text xml:space="preserve" text-anchor="start" x="561.14" y="-256.1" font-family="Helvetica,sans-Serif" font-size="14.00"> fecha_vencimiento : DATE</text>
<text xml:space="preserve" text-anchor="start" x="561.14" y="-239.3" font-family="Helvetica,sans-Serif" font-size="14.00"> estado_tarjeta : VARCHAR(30)</text>
</g>
<!-- Vehiculo&#45;&gt;Tarjeta_Circulacion -->
<g id="edge3" class="edge">
<title>Vehiculo-&gt;Tarjeta_Circulacion</title>
<path fill="none" stroke="black" d="M313.96,-254.81C328.8,-256.12 344,-257.45 359.23,-258.79"/>
<polygon fill="black" stroke="black" points="358.54,-262.24 368.81,-259.63 359.15,-255.27 358.54,-262.24"/>
<text xml:space="preserve" text-anchor="middle" x="342.17" y="-262.22" font-family="Times,serif" font-size="14.00">1:1</text>
</g>
<!-- Calcomania -->
<g id="node5" class="node">
<title>Calcomania</title>
<polygon fill="none" stroke="black" points="410.73,-136.5 410.73,-211.7 726.72,-211.7 726.72,-136.5 410.73,-136.5"/>
<text xml:space="preserve" text-anchor="middle" x="465.01" y="-169.9" font-family="Helvetica,sans-Serif" font-size="14.00">CALCOMANIA</text>
<polyline fill="none" stroke="black" points="519.3,-136.5 519.3,-211.7"/>
<text xml:space="preserve" text-anchor="start" x="527.3" y="-195.1" font-family="Helvetica,sans-Serif" font-size="14.00">PK id_calcomania : INT</text>
<text xml:space="preserve" text-anchor="start" x="527.3" y="-178.3" font-family="Helvetica,sans-Serif" font-size="14.00"> FK placa : VARCHAR(10)</text>
<text xml:space="preserve" text-anchor="start" x="527.3" y="-161.5" font-family="Helvetica,sans-Serif" font-size="14.00"> anio_impuesto : INT</text>
<text xml:space="preserve" text-anchor="start" x="527.3" y="-144.7" font-family="Helvetica,sans-Serif" font-size="14.00"> monto_base : DECIMAL(10,2)</text>
</g>
<!-- Vehiculo&#45;&gt;Calcomania -->
<g id="edge4" class="edge">
<title>Vehiculo-&gt;Calcomania</title>
<path fill="none" stroke="black" d="M313.96,-215.58C341.83,-211.02 370.97,-206.26 399.16,-201.65"/>
<polygon fill="black" stroke="black" points="399.53,-205.14 408.83,-200.07 398.4,-198.23 399.53,-205.14"/>
<text xml:space="preserve" text-anchor="middle" x="342.17" y="-215.81" font-family="Times,serif" font-size="14.00">1:N</text>
</g>
<!-- Tramite -->
<g id="node7" class="node">
<title>Tramite</title>
<polygon fill="none" stroke="black" points="430.97,-8.7 430.97,-117.5 706.47,-117.5 706.47,-8.7 430.97,-8.7"/>
<text xml:space="preserve" text-anchor="middle" x="469.7" y="-58.9" font-family="Helvetica,sans-Serif" font-size="14.00">TRAMITE</text>
<polyline fill="none" stroke="black" points="508.42,-8.7 508.42,-117.5"/>
<text xml:space="preserve" text-anchor="start" x="516.42" y="-100.9" font-family="Helvetica,sans-Serif" font-size="14.00">PK id_tramite : INT</text>
<text xml:space="preserve" text-anchor="start" x="516.42" y="-84.1" font-family="Helvetica,sans-Serif" font-size="14.00"> FK placa : VARCHAR(10)</text>
<text xml:space="preserve" text-anchor="start" x="516.42" y="-67.3" font-family="Helvetica,sans-Serif" font-size="14.00"> FK id_usuario : INT</text>
<text xml:space="preserve" text-anchor="start" x="516.42" y="-50.5" font-family="Helvetica,sans-Serif" font-size="14.00"> tipo_tramite : VARCHAR(50)</text>
<text xml:space="preserve" text-anchor="start" x="516.42" y="-33.7" font-family="Helvetica,sans-Serif" font-size="14.00"> fecha_tramite : DATE</text>
<text xml:space="preserve" text-anchor="start" x="516.42" y="-16.9" font-family="Helvetica,sans-Serif" font-size="14.00"> descripcion_tramite : TEXT</text>
</g>
<!-- Vehiculo&#45;&gt;Tramite -->
<g id="edge5" class="edge">
<title>Vehiculo-&gt;Tramite</title>
<path fill="none" stroke="black" d="M314.08,-153.39C332.91,-144.02 352.06,-135.03 370.67,-127.1 386.49,-120.36 403.28,-113.9 420.12,-107.85"/>
<polygon fill="black" stroke="black" points="420.92,-111.28 429.18,-104.65 418.59,-104.68 420.92,-111.28"/>
<text xml:space="preserve" text-anchor="middle" x="342.17" y="-147.56" font-family="Times,serif" font-size="14.00">1:N</text>
</g>
<!-- Pago -->
<g id="node8" class="node">
<title>Pago</title>
<polygon fill="none" stroke="black" points="823.78,-63.7 823.78,-172.5 1086.11,-172.5 1086.11,-63.7 823.78,-63.7"/>
<text xml:space="preserve" text-anchor="middle" x="852" y="-113.9" font-family="Helvetica,sans-Serif" font-size="14.00">PAGO</text>
<polyline fill="none" stroke="black" points="880.23,-63.7 880.23,-172.5"/>
<text xml:space="preserve" text-anchor="start" x="888.23" y="-155.9" font-family="Helvetica,sans-Serif" font-size="14.00">PK id_pago : INT</text>
<text xml:space="preserve" text-anchor="start" x="888.23" y="-139.1" font-family="Helvetica,sans-Serif" font-size="14.00"> FK id_calcomania : INT</text>
<text xml:space="preserve" text-anchor="start" x="888.23" y="-122.3" font-family="Helvetica,sans-Serif" font-size="14.00"> FK id_tramite : INT</text>
<text xml:space="preserve" text-anchor="start" x="888.23" y="-105.5" font-family="Helvetica,sans-Serif" font-size="14.00"> monto_total : DECIMAL(10,2)</text>
<text xml:space="preserve" text-anchor="start" x="888.23" y="-88.7" font-family="Helvetica,sans-Serif" font-size="14.00"> fecha_pago : DATE</text>
<text xml:space="preserve" text-anchor="start" x="888.23" y="-71.9" font-family="Helvetica,sans-Serif" font-size="14.00"> estado_pago : VARCHAR(30)</text>
</g>
<!-- Calcomania&#45;&gt;Pago -->
<g id="edge7" class="edge">
<title>Calcomania-&gt;Pago</title>
<path fill="none" stroke="black" d="M727.11,-151.16C755.25,-147.06 784.42,-142.81 812.09,-138.77"/>
<polygon fill="black" stroke="black" points="812.55,-142.24 821.94,-137.34 811.54,-135.32 812.55,-142.24"/>
<text xml:space="preserve" text-anchor="middle" x="795.28" y="-146.95" font-family="Times,serif" font-size="14.00">1:N</text>
</g>
<!-- Usuario -->
<g id="node6" class="node">
<title>Usuario</title>
<polygon fill="none" stroke="black" points="1.56,-0.5 1.56,-75.7 312.11,-75.7 312.11,-0.5 1.56,-0.5"/>
<text xml:space="preserve" text-anchor="middle" x="41.46" y="-33.9" font-family="Helvetica,sans-Serif" font-size="14.00">USUARIO</text>
<polyline fill="none" stroke="black" points="81.35,-0.5 81.35,-75.7"/>
<text xml:space="preserve" text-anchor="start" x="89.35" y="-59.1" font-family="Helvetica,sans-Serif" font-size="14.00">PK id_usuario : INT</text>
<text xml:space="preserve" text-anchor="start" x="89.35" y="-42.3" font-family="Helvetica,sans-Serif" font-size="14.00"> nombre_usuario : VARCHAR(50)</text>
<text xml:space="preserve" text-anchor="start" x="89.35" y="-25.5" font-family="Helvetica,sans-Serif" font-size="14.00"> password_hash : VARCHAR(255)</text>
<text xml:space="preserve" text-anchor="start" x="89.35" y="-8.7" font-family="Helvetica,sans-Serif" font-size="14.00"> rol : VARCHAR(30)</text>
</g>
<!-- Usuario&#45;&gt;Tramite -->
<g id="edge6" class="edge">
<title>Usuario-&gt;Tramite</title>
<path fill="none" stroke="black" d="M312.5,-47.53C347.5,-49.67 384.59,-51.93 419.32,-54.05"/>
<polygon fill="black" stroke="black" points="418.8,-57.52 429,-54.64 419.23,-50.54 418.8,-57.52"/>
<text xml:space="preserve" text-anchor="middle" x="342.17" y="-54.05" font-family="Times,serif" font-size="14.00">1:N</text>
</g>
<!-- Tramite&#45;&gt;Pago -->
<g id="edge8" class="edge">
<title>Tramite-&gt;Pago</title>
<path fill="none" stroke="black" d="M706.81,-82.72C741.03,-87.62 777.8,-92.89 812.25,-97.82"/>
<polygon fill="black" stroke="black" points="811.45,-101.24 821.85,-99.19 812.44,-94.31 811.45,-101.24"/>
<text xml:space="preserve" text-anchor="middle" x="795.28" y="-99.73" font-family="Times,serif" font-size="14.00">1:N</text>
</g>
</g>
</svg>